/* XPM */
static char *_fed2f12dd6b42cef42f25ccbaf0f2d0L7XfZFajA8T9kaUn[] = {
/* columns rows colors chars-per-pixel */
"32 32 84 1 ",
"  c black",
". c #B78A62",
"X c #B4855D",
"o c #E4CAA1",
"O c #FFFFFC",
"+ c #DFC39A",
"@ c #B1825A",
"# c #F4E0B7",
"$ c #C59E75",
"% c #FFFFD9",
"& c #B88B62",
"* c #C2986B",
"= c #C49A6C",
"- c #C3996F",
"; c #B58761",
": c #AB7A5A",
"> c #AA7959",
", c #B3855F",
"< c #AD7D5B",
"1 c #AC7C5A",
"2 c #B4855D",
"3 c #C49C73",
"4 c #C69E76",
"5 c #C39B73",
"6 c #A47049",
"7 c #BF966E",
"8 c #C59E76",
"9 c #B1825C",
"0 c #D1AF86",
"q c #CFAB83",
"w c #B78960",
"e c #C79E6E",
"r c #C69C6D",
"t c #C69D6E",
"y c #C19668",
"u c #BF966E",
"i c #A87757",
"p c #BE946B",
"a c #BC9069",
"s c #B1825E",
"d c #B78962",
"f c #B68962",
"g c #B58761",
"h c #B1825E",
"j c #A87758",
"k c #BA8D65",
"l c #B88B63",
"z c #B3845F",
"x c #BB8F66",
"c c #BB8F65",
"v c #B98C64",
"b c #B1825E",
"n c #A87758",
"m c #B88A63",
"M c #AC7C5B",
"N c #AE7F5C",
"B c #AE7F5C",
"V c #AE7E5C",
"C c None",
"Z c #A87758",
"A c #B48660",
"S c #B98D64",
"D c #B3845F",
"F c #A87758",
"G c #A97758",
"H c #A97758",
"J c #A87658",
"K c #AD7D5B",
"L c #B88B63",
"P c #B78A62",
"I c #B68962",
"U c #B78A62",
"Y c #BB9065",
"T c #B78962",
"R c #E6CCA3",
"E c #E0C39A",
"W c #D3B084",
"Q c #CCA77B",
"! c #C49A6C",
"~ c #C2976A",
"^ c #C3996B",
"/ c #B68861",
"( c #C09569",
") c white",
/* pixels */
"                                ",
"                                ",
"                                ",
"                                ",
"                                ",
"                                ",
"                                ",
"                                ",
"                                ",
"                                ",
"                                ",
"                                ",
"    .XoO+@.  #$%%$#  .@+OoX.    ",
"    &23456*==-7887-==*65432&    ",
"    ;90RqwertyuEEuytrewqR09;    ",
"    :ipWasdffghQQhgffdsaWpi:    ",
"    >jk!lzxccvb~~bvccxzl!kj>    ",
"    >nm^/MNBBVC((CVBBNM/^mn>    ",
"    >ZASDFGHHJKLLKJHHGFDSAZ>    ",
"    >,PIU<>>>1YTTY1>>><UIP,>    ",
"     .....   ......   .....     ",
"                                ",
"                                ",
"                                ",
"                                ",
"                                ",
"                                ",
"                                ",
"                                ",
"                                ",
"                                ",
"                                "
};
