/* XPM */
static char *_d7567997cc945d7d317d3cdde3487e8tgsy1aXwfvYoGn8u[] = {
/* columns rows colors chars-per-pixel */
"32 32 125 2 ",
"   c black",
".  c #B78A62",
"X  c #B68961",
"o  c #B68861",
"O  c #AF805D",
"+  c #AA7959",
"@  c #AC7B5A",
"#  c #AC7B59",
"$  c #B88B62",
"%  c #B58761",
"&  c #AB7A5A",
"*  c #AD7D5B",
"=  c #A97858",
"-  c #AE7F5C",
";  c #AF805C",
":  c #B78B62",
">  c #B0815D",
",  c #9E6A51",
"<  c #A26E53",
"1  c #AA7A59",
"2  c #B68860",
"3  c #B68860",
"4  c #B68860",
"5  c #B4855D",
"6  c #CFAB83",
"7  c None",
"8  c #CDA981",
"9  c #B18159",
"0  c #AC7B59",
"q  c #C8A27A",
"w  c #C69F77",
"e  c #AA7957",
"r  c #A87657",
"t  c #BA8D65",
"y  c #B88B64",
"u  c #A77556",
"i  c #A97859",
"p  c #B68862",
"a  c #B68861",
"s  c #A87658",
"d  c #AA7959",
"f  c #B1825E",
"g  c #B1825E",
"h  c #A97758",
"j  c #A97858",
"k  c #B1825E",
"l  c #AC7C5A",
"z  c #B2835E",
"x  c #A57255",
"c  c #AA7959",
"v  c #AA7959",
"b  c #AA7959",
"n  c #A67455",
"m  c #A97858",
"M  c #A57353",
"N  c #B5875D",
"B  c #C19871",
"V  c #BD936E",
"C  c #C19871",
"Z  c #B08056",
"A  c #B1825C",
"S  c #D1AF86",
"D  c #CFAC83",
"F  c #AF7F59",
"G  c #A87757",
"H  c #BF946C",
"J  c #BD9169",
"K  c #A77556",
"L  c #A97758",
"P  c #B88B63",
"I  c #B78A63",
"U  c #A77657",
"Y  c #AA7959",
"T  c #B38560",
"R  c #B38560",
"E  c #A87758",
"W  c #AA7959",
"Q  c #B1825E",
"!  c #B1825E",
"~  c #A87758",
"^  c #AF805D",
"/  c #AB7A5A",
"(  c #B0815D",
")  c #AA7959",
"_  c #A87758",
"`  c #AE7E5B",
"'  c #AC7C5A",
"]  c #AF7F5B",
"[  c #B4855D",
"{  c #CDA981",
"}  c #CCA87F",
"|  c #B18159",
" . c #AD7C59",
".. c #CAA47C",
"X. c #C7A179",
"o. c #AB7A57",
"O. c #BA8E65",
"+. c #B98C64",
"@. c #A67456",
"#. c #A87758",
"$. c #A77557",
"%. c #A87758",
"&. c #B58761",
"*. c #B48660",
"=. c #A87657",
"-. c #A77557",
";. c #B58760",
":. c #B78A62",
">. c #B48660",
",. c #A47155",
"<. c #B68861",
"1. c #E2C69C",
"2. c #C59B6E",
"3. c #B2835E",
"4. c #AD7D5B",
"5. c #E7CDA4",
"6. c #D4B184",
"7. c #BA8E64",
"8. c #AE7E5C",
"9. c #D5B48C",
"0. c #E4C89E",
"q. c #C8A071",
"w. c #C59B6C",
"e. c #BF9468",
"r. c white",
/* pixels */
"                                                                ",
"                                                                ",
"                                                                ",
"                          . . . . .                             ",
"                        . X 2 3 4 o .                           ",
"                        . 5 6 7 8 9 .                           ",
"                        O 0 q 1.w e O                           ",
"                        + r t 2.y u +                           ",
"                        + i p 3.a s +                           ",
"                        + d f 4.g h +                           ",
"                        + j k l z x +                           ",
"                        + + c v b + +                           ",
"                        . @ n m M # .                           ",
"                        $ N B V C Z $                           ",
"                        % A S 5.D F %                           ",
"                        & G H 6.J K &                           ",
"                        + L P 7.I U +                           ",
"                        + Y T 8.R E +                           ",
"                        + W Q 4.! ~ +                           ",
"                        + & ^ / ( * +                           ",
"                          + h ) _ =                             ",
"                        . - ` ' ] ; .                           ",
"                        : [ { 9.} | :                           ",
"                        >  ...0.X.o.>                           ",
"                        + r O.q.+.@.+                           ",
"                        + #.t w.+.$.+                           ",
"                        + %.&.e.*.=.+                           ",
"                        + -.;.:.>.,.+                           ",
"                        + + , <.< 1 +                           ",
"                                                                ",
"                                                                ",
"                                                                "
};
