/* XPM */
static char *e32156918539499bc5aae3f834359ee8BMd6phvQdMn8x2Qx[] = {
/* columns rows colors chars-per-pixel */
"15 15 11 1 ",
"  c None",
". c #F3F4E7",
"X c #555793",
"o c #4C468B",
"O c #8599C7",
"+ c #7180B1",
"@ c #CBE0DE",
"# c #B4C8C6",
"$ c #DCE0D2",
"% c #5F699C",
"& c white",
/* pixels */
"    ......     ",
"   .XXXXXo.    ",
"  .XOOOO++o.   ",
"   .oooooo.    ",
"  .O@.@@@#O.   ",
"  .O.@@@@#O.   ",
"  .O@@@@@#O.   ",
" .O......$$+.  ",
" .O......$$+.  ",
" .+......$$%.  ",
" .+......$$%.  ",
" .+.....$$$%.  ",
" .%..$$$$$$%.  ",
"  .%%%%%%%%.   ",
"   ........    "
};
