/* XPM */
static char *e6ee954c59964edef2a10ebd2e16b9b549d4kbzzSgT97la1[] = {
/* columns rows colors chars-per-pixel */
"32 32 207 2 ",
"   c None",
".  c #7F765C",
"X  c #795163",
"o  c #7D5460",
"O  c #7E5460",
"+  c #7E5560",
"@  c #7F5561",
"#  c #7C5563",
"$  c #7D5563",
"%  c #7F5662",
"&  c #7B5465",
"*  c #7D5664",
"=  c #7E5664",
"-  c #85595E",
";  c #865A5E",
":  c #875B5F",
">  c #845C5D",
",  c #8B5D5D",
"<  c #895D5E",
"1  c #885C5F",
"2  c #8E605C",
"3  c #8F615C",
"4  c #91625C",
"5  c #91635C",
"6  c #90625D",
"7  c #91625D",
"8  c #91635D",
"9  c #92635C",
"0  c #94655D",
"q  c #976A5E",
"w  c #A3735C",
"e  c #A4755C",
"r  c #805761",
"t  c #805762",
"y  c #855B62",
"u  c #885E61",
"i  c #8F6561",
"p  c #8B6365",
"a  c #906561",
"s  c #916662",
"d  c #916764",
"f  c #936862",
"g  c #966961",
"h  c #946862",
"j  c #936A65",
"k  c #956B65",
"l  c #986B60",
"z  c #9A6B61",
"x  c #9A6E63",
"c  c #9B6E63",
"v  c #9B6F63",
"b  c #9F7361",
"n  c #9C7062",
"m  c #A27663",
"M  c #A07567",
"N  c #A47765",
"B  c #A47863",
"V  c #A37967",
"C  c #A47B67",
"Z  c #A77C66",
"A  c #A97C62",
"S  c #A97D66",
"D  c #AA7E66",
"F  c #A87F68",
"G  c #A97E6A",
"H  c #93975B",
"J  c #949E5A",
"K  c #AF815F",
"L  c #82A85B",
"P  c #83A95B",
"I  c #85AB5B",
"U  c #86AB5C",
"Y  c #85AC5C",
"T  c #88A95E",
"R  c #89AA5E",
"E  c #88AE5C",
"W  c #89AE5C",
"Q  c #88AF5C",
"!  c #96AC5D",
"~  c #8DB05E",
"^  c #8EB15F",
"/  c #90B25F",
"(  c #91B45E",
")  c #92B45E",
"_  c #A2A85F",
"`  c #A58461",
"'  c #AE8060",
"]  c #AE8161",
"[  c #AC8166",
"{  c #AA8068",
"}  c #AC8269",
"|  c #AA806C",
" . c #AC826E",
".. c #AE846F",
"X. c #AE856F",
"o. c #B18260",
"O. c #B38765",
"+. c #B48765",
"@. c #B58861",
"#. c #B68861",
"$. c #B78961",
"%. c #B68C66",
"&. c #B78C67",
"*. c #B98C65",
"=. c #BB8E65",
"-. c #BB8F65",
";. c #B98D66",
":. c #B88D67",
">. c #B0866E",
",. c #B48A6A",
"<. c #B98E69",
"1. c #A59761",
"2. c #AA9566",
"3. c #BD9167",
"4. c #BD9267",
"5. c #BE9267",
"6. c #BB916B",
"7. c #BC9168",
"8. c #BC9169",
"9. c #BC926B",
"0. c #BC936B",
"q. c #BD936B",
"w. c #B29B6F",
"e. c #B28871",
"r. c #BD9577",
"t. c #BE9777",
"y. c #BB9D73",
"u. c #BF9E75",
"i. c #8DA960",
"p. c #8DAB60",
"a. c #91AF60",
"s. c #95AF63",
"d. c #9BAB69",
"f. c #91B360",
"g. c #9AB365",
"h. c #97B960",
"j. c #98B862",
"k. c #9DBD61",
"l. c #9DBE62",
"z. c #9EBE62",
"x. c #A9A663",
"c. c #A3AD6D",
"v. c #BAA26B",
"b. c #A3B960",
"n. c #A1BE65",
"m. c #A0BF65",
"M. c #A2BF65",
"N. c #A1B06B",
"B. c #B7B277",
"V. c #B8B378",
"C. c #BDB27B",
"Z. c #BEB27B",
"A. c #C1976A",
"S. c #C3986A",
"D. c #C3986B",
"F. c #C3996B",
"G. c #C59B6C",
"H. c #C59B6D",
"J. c #C69C6C",
"K. c #C79D6D",
"L. c #C79E6F",
"P. c #C1987A",
"I. c #C49D7B",
"U. c #C59D7C",
"Y. c #C59E7C",
"T. c #C1A274",
"R. c #C2A179",
"E. c #CCA67A",
"W. c #A1C062",
"Q. c #A2C062",
"!. c #A2C064",
"~. c #ADC066",
"^. c #AFC266",
"/. c #ACC768",
"(. c #B0CA69",
"). c #B2CB69",
"_. c #B6CE6C",
"`. c #BBCF6D",
"'. c #BCD16E",
"]. c #CDA881",
"[. c #D0AB83",
"{. c #D1AC83",
"}. c #CDB583",
"|. c #D2B084",
" X c #D0B484",
".X c #D1B484",
"XX c #D2B785",
"oX c #D1B28B",
"OX c #D6B288",
"+X c #D7B388",
"@X c #DCBB8E",
"#X c #D7B793",
"$X c #DFBE90",
"%X c #DDC097",
"&X c #E0C193",
"*X c #E4C89D",
"=X c #E5C99D",
"-X c #E0C5A0",
";X c #E7CCA1",
":X c #E3C9A4",
">X c #E6CEA9",
",X c #E8CFAA",
"<X c #EBD4AB",
"1X c #EBD5AE",
"2X c #EBD6B0",
"3X c #EDD9B2",
"4X c #EEDAB4",
/* pixels */
"                             ..... .                            ",
"                    c M P.Y..X.X.X.XY.P.M c                     ",
"                 .e.{.|.Z.V.g.a.a.g.V.Z.|.{.e. .                ",
"        c M P.Y..X}.c.N./ L /.W.W./.L / N.c.}..XY.P.M c         ",
"      c ].|.Z.B.s.R ~ _.z.I !.h.h.!.I z._.~ R s.B.Z.|.].c       ",
"      z w.d.L j.(.( ~ (.z.U /.W.W./.U z.(.~ ( (.j.L d.w.z       ",
"        . R E n.(.( f.'.z.I !.h.h.!.I z.'.f.( (.n.E R .         ",
"          p.E n.(.( ~ (.z.Y ~.b.b.~.Y z.(.~ ( (.n.E p.          ",
"          p.E n.(.( f.`._ H y.u.u.y.H _ `.f.( (.n.E p.          ",
"          p.E n.~.! 1.v.oX#X2X4X4X2X#XoXv.1.! ~.n.E p.          ",
"          p.J x.T.R.:X>X1X<X&X$X$X&X<X1X>X:XR.T.x.J p.          ",
"        ` 2.oX#X2X3X;X*X+X{...| | ..{.+X*X;X3X2X#XoX2.`         ",
"      +.-X,X1X<X&X@XI.r.c g 3 3 3 3 g c r.I.@X&X<X1X,X-X+.      ",
"      N %X*X+X[.>.G 0 5 5 5 5 5 5 5 5 5 5 0 G >.[.+X*X%XN       ",
"        r.r.D D ' K o.o.o.o.o.o.o.o.o.o.o.o.K ' D D r.r.        ",
"          1 &.A.A.A.A.A.A.A.A.A.A.A.A.A.A.A.A.A.A.&.>           ",
"          O ' #.#.#.#.#.#.#.#.#.#.#.#.#.#.#.#.#.#.' O           ",
"          t 9.G.9.9.G.G.G.G.L.L.L.L.G.G.G.G.9.9.G.9.t           ",
"          O O.[ u u [ :.:.:.{ G G { :.:.:.[ u u [ O.O           ",
"          O O.a 1 1 i :.:.z ; ; ; ; z :.:.i 1 1 a O.O           ",
"          t 9.k b b k L.} ; 5 5 5 5 ; } L.k b b k 9.t           ",
"          O ' A E.E.A #.b ; 5 5 5 5 ; b #.A E.E.A ' O           ",
"          t <.F.L.L.F.F.Z ; 5 5 5 5 ; Z F.F.L.L.F.<.t           ",
"          t ,.9.6.9.9.9.V 1 w e e w 1 V 9.9.9.6.9.,.t           ",
"            = O a y O = X q 3.3.3.3.q X = O y a O =             ",
"              O :.d       g 9.3.3.9.g       d :.O               ",
"              = 9.j       f 9.3.3.9.f       j 9.=               ",
"              = 9.j       f 9.3.3.9.f       j 9.=               ",
"              & C p       f 9.3.3.9.f       p C &               ",
"                          f 9.3.3.9.f                           ",
"                          f 9.3.3.9.f                           ",
"                            m B B m                             "
};
